<?xml version="1.0" standalone="no"?>
<!DOCTYPE svg PUBLIC "-//W3C//DTD SVG 20010904//EN"
 "http://www.w3.org/TR/2001/REC-SVG-20010904/DTD/svg10.dtd">
<svg version="1.0" xmlns="http://www.w3.org/2000/svg"
 width="559.000000pt" height="447.000000pt" viewBox="0 0 559.000000 447.000000"
 preserveAspectRatio="xMidYMid meet">

<g transform="translate(0.000000,447.000000) scale(0.100000,-0.100000)"
fill="#000000" stroke="none">
<path d="M2234 3787 c-105 -62 -266 -155 -357 -207 l-166 -95 2 -1254 2 -1255
85 -49 c409 -237 626 -360 635 -360 9 0 134 71 605 343 l115 66 3 421 2 421
338 195 c185 107 347 200 360 206 l22 12 0 418 0 419 -112 65 c-62 36 -230
132 -373 215 -143 82 -417 240 -609 351 -192 110 -351 201 -355 200 -3 0 -92
-51 -197 -112z m576 -932 c151 -87 292 -168 313 -180 l38 -22 -48 -30 c-26
-17 -138 -82 -248 -146 -110 -63 -248 -142 -307 -176 -58 -33 -111 -61 -117
-61 -8 0 -11 124 -11 416 l0 416 53 -29 c28 -16 176 -101 327 -188z"/>
</g>
</svg>
